HIERARCHY
ROOT Hips
{
	OFFSET 0.00000 0.00000 0.00000
	CHANNELS 6 Xposition Yposition Zposition Zrotation Yrotation Xrotation 
	JOINT LHipJoint
	{
		OFFSET 0 0 0
		CHANNELS 3 Zrotation Yrotation Xrotation
		JOINT LeftUpLeg
		{
			OFFSET 1.77779 -1.88989 0.48267
			CHANNELS 3 Zrotation Yrotation Xrotation
			JOINT LeftLeg
			{
				OFFSET 2.53442 -6.96327 0.00000
				CHANNELS 3 Zrotation Yrotation Xrotation
				JOINT LeftFoot
				{
					OFFSET 2.71068 -7.44755 0.00000
					CHANNELS 3 Zrotation Yrotation Xrotation
					JOINT LeftToeBase
					{
						OFFSET 0.17992 -0.49431 2.22524
						CHANNELS 3 Zrotation Yrotation Xrotation
						End Site
						{
							OFFSET 0.00000 -0.00000 1.14687
						}
					}
				}
			}
		}
	}
	JOINT RHipJoint
	{
		OFFSET 0 0 0
		CHANNELS 3 Zrotation Yrotation Xrotation
		JOINT RightUpLeg
		{
			OFFSET -1.58469 -1.88989 0.48267
			CHANNELS 3 Zrotation Yrotation Xrotation
			JOINT RightLeg
			{
				OFFSET -2.60386 -7.15404 0.00000
				CHANNELS 3 Zrotation Yrotation Xrotation
				JOINT RightFoot
				{
					OFFSET -2.73334 -7.50979 0.00000
					CHANNELS 3 Zrotation Yrotation Xrotation
					JOINT RightToeBase
					{
						OFFSET -0.25618 -0.70384 2.21822
						CHANNELS 3 Zrotation Yrotation Xrotation
						End Site
						{
							OFFSET -0.00000 -0.00000 1.16381
						}
					}
				}
			}
		}
	}
	JOINT LowerBack
	{
		OFFSET 0 0 0
		CHANNELS 3 Zrotation Yrotation Xrotation
		JOINT Spine
		{
			OFFSET 0.03410 2.01612 -0.22230
			CHANNELS 3 Zrotation Yrotation Xrotation
			JOINT Spine1
			{
				OFFSET 0.03465 2.03012 0.00937
				CHANNELS 3 Zrotation Yrotation Xrotation
				JOINT Neck
				{
					OFFSET 0 0 0
					CHANNELS 3 Zrotation Yrotation Xrotation
					JOINT Neck1
					{
						OFFSET -0.00219 1.70459 0.20857
						CHANNELS 3 Zrotation Yrotation Xrotation
						JOINT Head
						{
							OFFSET 0.02518 1.72339 -0.22179
							CHANNELS 3 Zrotation Yrotation Xrotation
							End Site
							{
								OFFSET 0.00282 1.74122 -0.09823
							}
						}
					}
				}
				JOINT LeftShoulder
				{
					OFFSET 0 0 0
					CHANNELS 3 Zrotation Yrotation Xrotation
					JOINT LeftArm
					{
						OFFSET 3.36358 1.00547 -0.37661
						CHANNELS 3 Zrotation Yrotation Xrotation
						JOINT LeftForeArm
						{
							OFFSET 5.06507 -0.00000 0.00000
							CHANNELS 3 Zrotation Yrotation Xrotation
							JOINT LeftHand
							{
								OFFSET 3.60196 -0.00000 0.00000
								CHANNELS 3 Zrotation Yrotation Xrotation
								JOINT LeftFingerBase
								{
									OFFSET 0 0 0
									CHANNELS 3 Zrotation Yrotation Xrotation
									JOINT LeftHandIndex1
									{
										OFFSET 0.45035 -0.00000 0.00000
										CHANNELS 3 Zrotation Yrotation Xrotation
										End Site
										{
											OFFSET 0.36308 -0.00000 0.00000
										}
									}
								}
								JOINT LThumb
								{
									OFFSET 0 0 0
									CHANNELS 3 Zrotation Yrotation Xrotation
									End Site
									{
										OFFSET 0.36862 -0.00000 0.36862
									}
								}
							}
						}
					}
				}
				JOINT RightShoulder
				{
					OFFSET 0 0 0
					CHANNELS 3 Zrotation Yrotation Xrotation
					JOINT RightArm
					{
						OFFSET -3.50159 0.80383 -0.71526
						CHANNELS 3 Zrotation Yrotation Xrotation
						JOINT RightForeArm
						{
							OFFSET -5.36394 -0.00000 0.00000
							CHANNELS 3 Zrotation Yrotation Xrotation
							JOINT RightHand
							{
								OFFSET -3.58035 -0.00000 0.00000
								CHANNELS 3 Zrotation Yrotation Xrotation
								JOINT RightFingerBase
								{
									OFFSET 0 0 0
									CHANNELS 3 Zrotation Yrotation Xrotation
									JOINT RightHandIndex1
									{
										OFFSET -0.66375 -0.00000 0.00000
										CHANNELS 3 Zrotation Yrotation Xrotation
										End Site
										{
											OFFSET -0.53513 -0.00000 0.00000
										}
									}
								}
								JOINT RThumb
								{
									OFFSET 0 0 0
									CHANNELS 3 Zrotation Yrotation Xrotation
									End Site
									{
										OFFSET -0.54330 -0.00000 0.54330
									}
								}
							}
						}
					}
				}
			}
		}
	}
}
MOTION
Frames: 8
Frame Time: .0083333
1.1365 18.0649 7.4957 2.3682 -1.8705 -2.8219 0.0000 0.0000 0.0000 -28.1600 -5.0448 -0.6912 2.5207 9.8754 28.5743 1.1349 -2.9421 -19.3727 0.0177 -0.8585 -2.3595 0.0000 0.0000 0.0000 16.9540 10.0000 -28.0904 -5.4641 -13.8881 42.7911 -0.2371 -5.3991 -12.7619 -0.3542 3.8235 -10.5807 -3.4050 -0.1260 8.6753 1.0621 -0.4415 1.6836 3.0677 -0.1864 -3.0826 -1.0193 -2.8090 -15.8809 0.0576 -3.6135 16.4552 -0.2185 -1.7805 7.7105 0.0000 -0.0000 0.0000 -80.2062 -0.3245 28.2851 19.1996 -29.6659 -5.1293 -0.0000 0.0000 -2.5487 26.4191 26.4787 12.4902 -7.1250 0.0000 -0.0000 -4.1082 59.0159 -1.4086 0.0000 -0.0000 0.0000 89.3623 0.5087 5.3645 -14.5083 23.4567 -3.0275 0.0000 0.0000 4.5973 -14.6302 19.6915 -5.0268 7.1250 -0.0000 -0.0000 8.8398 -9.8720 7.2829
1.1356 18.0706 7.6301 2.3358 -1.8865 -2.7138 0.0000 0.0000 0.0000 -28.1680 -4.8532 0.0522 2.4228 9.6962 27.9983 1.1386 -2.9333 -19.4065 0.0092 -0.6197 -1.7028 0.0000 0.0000 0.0000 17.0131 10.1790 -28.1202 -4.8228 -13.1814 40.0513 -0.1546 -6.1126 -12.0540 -0.4255 4.1866 -11.6022 -3.3880 -0.1551 8.6830 1.1195 -0.4768 1.6797 3.1219 -0.2038 -3.0878 -1.0947 -2.8260 -15.5713 0.1445 -3.6351 16.0306 -0.1712 -1.7894 7.5197 0.0000 0.0000 0.0000 -80.0538 -0.9347 28.4915 19.0663 -29.5009 -5.0634 -0.0000 0.0000 -2.6091 26.5118 26.5001 12.5484 -7.1250 0.0000 -0.0000 -4.0121 59.0605 -1.3799 0.0000 0.0000 0.0000 89.3479 0.6672 5.1095 -14.4387 23.3584 -2.9998 0.0000 0.0000 5.2125 -16.2032 21.2673 -6.0168 7.1250 -0.0000 -0.0000 7.8996 -8.0868 6.7762
1.1284 18.0697 7.7758 2.3719 -2.0647 -2.6699 0.0000 0.0000 0.0000 -28.1816 -4.2902 0.5422 2.3707 9.5989 27.6875 1.1666 -2.9905 -19.6425 0.0149 -0.7879 -2.1655 0.0000 0.0000 0.0000 17.0285 10.5612 -27.8082 -4.1827 -12.3996 37.1608 -0.1075 -6.6646 -11.8031 -0.2666 3.3213 -9.1745 -3.5235 -0.1193 8.5598 1.1620 -0.4358 1.7061 3.2367 -0.1845 -2.9935 -1.2179 -2.8833 -15.5395 0.2416 -3.7045 16.1400 -0.1276 -1.8206 7.5550 -0.0000 0.0000 0.0000 -79.8683 -1.3456 28.5497 19.2097 -29.6784 -5.1343 -0.0000 0.0000 -2.0114 26.7924 27.1236 12.9648 -7.1250 0.0000 -0.0000 -3.9542 59.7858 -1.4285 -0.0000 0.0000 0.0000 89.3948 0.7675 4.7814 -14.1987 23.0180 -2.9053 0.0000 0.0000 5.0366 -17.0709 19.9887 -5.9925 7.1250 -0.0000 -0.0000 7.2799 -9.2820 6.0608
1.1147 18.0684 7.9216 2.1294 -2.2195 -2.5093 0.0000 0.0000 0.0000 -27.8345 -3.7167 0.8499 2.3249 9.5123 27.4115 1.1991 -3.2038 -19.8851 0.0178 -0.8604 -2.3647 0.0000 0.0000 0.0000 17.2781 11.1354 -27.4059 -3.5621 -11.5537 34.1707 -0.0575 -7.1638 -11.4438 -0.0939 1.9758 -5.4388 -3.4273 -0.1368 8.4060 1.2800 -0.4413 1.7294 3.3038 -0.1904 -2.8832 -1.3239 -2.8163 -16.1146 0.3680 -3.6103 16.7467 -0.0726 -1.7657 7.8603 0.0000 0.0000 0.0000 -79.6816 -1.7122 28.5405 19.4084 -29.9230 -5.2330 -0.0000 0.0000 -1.7159 27.4945 28.2564 13.8413 -7.1250 0.0000 -0.0000 -3.6400 61.1548 -1.4334 0.0000 0.0000 0.0000 89.4243 0.8593 4.6391 -14.1066 22.8869 -2.8694 0.0000 0.0000 4.9539 -17.0388 20.1412 -6.0241 7.1250 -0.0000 -0.0000 7.3082 -9.1299 6.1073
1.1070 18.0673 8.0622 1.9638 -2.1602 -2.2451 0.0000 0.0000 0.0000 -27.6388 -3.5752 1.1953 2.2705 9.4081 27.0803 1.2054 -3.3202 -19.9193 0.0192 -0.8954 -2.4609 0.0000 0.0000 0.0000 17.3187 11.7012 -27.1190 -2.9871 -10.6741 31.1884 0.0087 -7.8027 -10.9386 -0.0606 1.5882 -4.3689 -3.3809 -0.2327 8.4072 1.3894 -0.5624 1.5612 3.4059 -0.2446 -3.0478 -1.2349 -2.7887 -16.0809 0.2939 -3.5807 16.7637 -0.1078 -1.7535 7.8566 0.0000 -0.0000 0.0000 -79.5274 -1.9091 28.5730 19.4081 -29.9226 -5.2329 -0.0000 0.0000 -1.8754 28.7657 28.1381 14.5149 -7.1250 0.0000 -0.0000 -2.0734 61.3550 -0.8259 0.0000 -0.0000 0.0000 89.4047 0.6401 4.8002 -14.1991 23.0186 -2.9055 0.0000 0.0000 5.2761 -16.9939 22.1745 -6.5798 7.1250 -0.0000 -0.0000 7.4511 -7.0586 6.5359
1.1095 18.0610 8.2078 2.1942 -1.9790 -2.0184 0.0000 0.0000 0.0000 -27.9656 -3.5853 1.6637 2.2199 9.3098 26.7692 1.1999 -3.1292 -19.9053 0.0245 -1.0111 -2.7793 0.0000 0.0000 0.0000 16.9372 11.7820 -26.8869 -2.4549 -9.7555 28.1885 0.0410 -7.9433 -10.4271 -0.1259 2.2871 -6.2998 -3.5093 -0.3345 8.2836 1.3341 -0.7079 1.4419 3.4357 -0.3131 -3.0897 -1.2630 -2.8277 -15.6430 0.3497 -3.6406 16.4155 -0.0819 -1.7813 7.6666 -0.0000 -0.0000 0.0000 -79.3941 -2.2075 28.6945 19.3665 -29.8715 -5.2121 -0.0000 0.0000 -1.9298 29.2329 27.8769 14.6639 -7.1250 0.0000 -0.0000 -1.4037 61.1967 -0.5538 -0.0000 -0.0000 0.0000 89.4148 0.5639 4.7181 -14.0920 22.8660 -2.8637 0.0000 0.0000 5.2770 -16.2962 22.5701 -6.4022 7.1250 -0.0000 -0.0000 7.9130 -6.7505 6.9967
1.1028 18.0599 8.3594 2.4340 -1.8595 -1.8832 0.0000 0.0000 0.0000 -28.2583 -3.5046 2.1922 2.1655 9.2026 26.4311 1.1687 -2.8949 -19.6788 0.0219 -0.9551 -2.6252 0.0000 0.0000 0.0000 16.6267 11.8932 -26.4336 -1.9766 -8.8172 25.2252 0.0592 -8.0986 -10.2435 -0.2384 3.1421 -8.6745 -3.7552 -0.4096 8.1030 1.3195 -0.8236 1.4313 3.5689 -0.3704 -2.9868 -1.3952 -2.8306 -15.6095 0.3973 -3.6230 16.4417 -0.0425 -1.7767 7.6729 -0.0000 -0.0000 0.0000 -79.3049 -2.4968 28.8019 19.5009 -30.0363 -5.2792 -0.0000 0.0000 -2.0493 29.1102 27.4016 14.3736 -7.1250 0.0000 -0.0000 -1.3607 60.6566 -0.5194 -0.0000 -0.0000 0.0000 89.3704 0.6230 4.5654 -13.8965 22.5865 -2.7882 0.0000 0.0000 5.0440 -15.5388 21.3061 -5.7691 7.1250 -0.0000 -0.0000 8.3233 -8.1308 7.1402
1.0901 18.0600 8.5089 2.3735 -1.8255 -1.7913 0.0000 0.0000 0.0000 -28.1966 -3.3502 2.7398 2.1041 9.0796 26.0448 1.1648 -3.0018 -19.6239 0.0455 -1.3762 -3.7845 0.0000 0.0000 0.0000 16.6306 12.3243 -25.8274 -1.5641 -7.8921 22.3868 0.0706 -8.3756 -10.4219 -0.3602 3.8555 -10.6705 -3.7633 -0.4754 7.9961 1.3595 -0.9064 1.4611 3.6213 -0.4142 -2.8882 -1.1726 -2.7907 -15.5794 0.1615 -3.5753 16.3457 -0.1495 -1.7634 7.6265 0.0000 -0.0000 0.0000 -79.1755 -2.7439 28.7970 19.6661 -30.2380 -5.3622 -0.0000 0.0000 -2.0851 28.1058 26.1303 13.2363 -7.1250 0.0000 -0.0000 -2.0504 59.0478 -0.7040 0.0000 -0.0000 0.0000 89.3690 0.6353 4.7241 -13.8895 22.5765 -2.7855 0.0000 0.0000 4.8303 -15.9885 20.1125 -5.6270 7.1250 -0.0000 -0.0000 7.9817 -9.2881 6.6554
